<?xml version="1.0"?>
<!--Icons from directory ""-->
<svg xmlns="http://www.w3.org/2000/svg" width="300" height="867" viewBox="0 0 300 867"><svg width="300" viewBox="0 0 447 428" height="287" id="adv-descr-1" y="0"><path d="m31.496 419v-8.5h30v-113.08c0-75.26-0.336-112.97-1.004-112.75-0.553 0.184-11.68 11.025-24.728 24.09-13.05 13.067-24.067 23.64-24.486 23.5-0.42-0.142-3.126-2.622-6.014-5.512-4.084-4.085-5.032-5.594-4.26-6.784 0.545-0.84 48.692-49.18 106.99-107.42 96.69-96.59 106.39-105.99 110.41-107.05 5.052-1.325 10.974-0.248 14.81 2.696 1.3 0.995 17.868 17.333 36.82 36.305l34.46 34.493v-77.49h80.988l0.256 79.494 0.256 79.494 30.263 30.275 30.26 30.275-6.023 5.96-6.025 5.963-24.488-24.473-24.488-24.473v226.48h30v17h-384zm337-130.25v-121.74l-72.248-72.253c-39.74-39.74-72.7-72.253-73.25-72.253s-33.288 32.286-72.752 71.748l-71.754 71.748v244.5h290zm-192 28.257v-72.51l5.25-0.085c2.887-0.047 23.925-0.105 46.75-0.128l41.5-0.043v144.75l-46.75 0.26-46.75 0.26v-72.51zm76.758-0.197l0.26-55.856-59.518 0.044-0.26 55.765-0.257 55.764 29.757-0.265 29.76-0.266zm-153.76-25.31v-13h17v26h-17zm39 0v-13h17v26h-17zm153 0v-13h17v26h-17zm39 0v-13h17v26h-17zm-231-38.5v-12.5h17v25h-17zm39 0v-12.5h17v25h-17zm153.25-13l16.752 0.065v25.434h-17.06zm38.752-0.09l17.004 0.09 0.056 25.5h-17.06zm-114.5-30.532c-17.454-2.464-33.413-16.93-37.967-34.413-4.135-15.87-0.014-31.535 11.545-43.89 10.113-10.812 21.164-15.15 36.544-14.345 7.934 0.415 10.277 0.98 16.56 3.988 12.35 5.915 20.553 14.85 24.66 26.862 4.08 11.936 3.494 23.867-1.735 35.268-8.48 18.488-28.967 29.443-49.61 26.53zm21.882-20.256c9.67-5.667 15.036-15.04 14.955-26.122-0.09-12-5.74-21.046-16.502-26.424-11.833-5.914-24.32-3.735-33.995 5.93-6.258 6.252-8.84 12.425-8.84 21.138 0 13.756 11.253 26.734 24.92 28.744 6.628 0.974 14.475-0.343 19.463-3.266zm130.62-108.62v-62h-47v77.484l23.242 23.258c12.783 12.792 23.358 23.258 23.5 23.258s0.258-27.9 0.258-62z" fill="#81b3d2"/></svg><svg width="300" viewBox="0 0 445 416" height="280" id="adv-descr-2" y="287"><path d="m64.135 412.93c-15.095-3.654-30.24-15.72-37.016-29.49-4.06-8.25-6.586-18.552-6.613-26.975-0.016-5.345-0.136-5.59-3.267-6.726-5.305-1.924-10.437-6.887-13.436-12.994-2.752-5.604-2.814-6.104-2.802-22.73 0.01-15.164 0.24-17.496 2.123-21.59 2.54-5.524 7.655-10.84 12.962-13.473 3.822-1.897 8.124-1.937 206.9-1.937s203.08 0.04 206.9 1.937c5.303 2.63 10.42 7.946 12.968 13.474 1.892 4.102 2.118 6.4 2.124 21.59 0.006 16.646-0.053 17.12-2.826 22.767-2.9 5.91-9.637 12.185-14.345 13.367-2.084 0.523-2.325 1.162-2.34 6.224-0.082 26.605-18.806 50.646-44.086 56.605-9.31 2.194-308.18 2.15-317.25-0.047zm314.5-17.848c14.505-4.402 25.01-16.15 27.764-31.048 0.598-3.238 1.088-7.155 1.088-8.704v-2.816h-369v3.364c0 17.533 11.08 33.184 27.453 38.773 4.686 1.6 15.88 1.727 156.55 1.782 127.66 0.05 152.23-0.164 156.15-1.352zm46.814-62.78c0.924-0.924 1.538-2.526 1.538-3.833v-29.13c0-1.266-0.863-2.46-1.846-3.325s-2.47-1.502-3.766-1.502h-396.78c-1.278 0-2.586 0.507-3.586 1.352s-2.01 2.134-2.026 3.475l-0.184 14.628 0.032 12.82c0.005 2.24 0.86 4.238 1.996 5.448 1.306 1.39 3.86 1.36 5.03 1.593 198.85 0.303 90.653 0.368 198.85 0.303l196.73-0.12c1.307 0 3.082-0.787 4.007-1.712zm-104.37-77.322c-1.597-0.83-9.185-7.618-16.862-15.085l-13.958-13.576-4.637 4.335c-2.55 2.384-8.913 8.48-14.138 13.546-10.628 10.306-13.548 11.938-17.986 10.053-1.603-0.683-9.48-7.48-17.5-15.108l-14.586-13.867-14.42 14.126c-7.932 7.77-15.597 14.574-17.034 15.12s-3.808 0.693-5.27 0.326c-1.528-0.383-8.95-6.838-17.468-15.194l-14.812-14.528-9.712 9.49c-18.543 18.116-20.745 19.896-24.612 19.896-3.162 0-5.08-1.477-18.81-14.49-8.41-7.97-15.538-14.495-15.84-14.5-0.304-0.005-7.404 6.515-15.78 14.49-13.68 13.027-15.584 14.5-18.74 14.5-4.1 0-6.068-1.643-28.68-23.935-13.615-13.42-14.75-14.82-14.75-18.166 0-4.835 3.935-8.9 8.614-8.9 2.93 0 5.273 1.823 19.113 14.88l15.773 14.88 14.72-14.353c8.094-7.894 15.857-14.64 17.25-14.99 1.39-0.348 3.672-0.347 5.068 0.003 1.395 0.35 9.148 7.095 17.228 14.988l14.69 14.35 15.222-14.378c20.46-19.327 18.254-19.336 38.537 0.164l15.128 14.543 5.08-4.783c2.792-2.63 9.352-8.927 14.577-13.992 10.636-10.31 13.543-11.933 18.008-10.05 1.616 0.68 9.492 7.477 17.503 15.102l14.566 13.863 13.93-13.626c7.66-7.493 15.1-14.07 16.53-14.613 1.432-0.545 3.81-0.69 5.283-0.32 1.558 0.39 8.853 6.716 17.422 15.11l14.742 14.44 14.817-14.06c8.15-7.734 16.03-14.52 17.51-15.084 4.106-1.56 7.27 0.145 16.19 8.734 4.4 4.237 10.99 10.565 14.644 14.064l6.644 6.362 14.007-13.603c7.704-7.483 15.208-14.06 16.676-14.618 5.706-2.17 11.53 2.233 11.53 8.714 0 3.16-1.51 4.93-17.564 20.615-18.492 18.066-22.23 20.875-26.61 19.994-1.66-0.334-8.402-6.04-17.75-15.024l-15.077-14.485-13.75 13.2c-17.885 17.168-19.445 18.146-24.655 15.44zm-292.59-65.12c-7.147-2.38-8.53-5.813-7.538-18.73 3.664-47.77 26.14-90.13 65.073-122.65 23.222-19.395 53.82-34.33 85.965-41.957 18.044-4.282 28.98-5.45 51-5.45s32.956 1.168 51 5.45c78.38 18.597 136.72 76.467 149.04 147.83 0.885 5.128 1.69 13.996 1.792 19.706 0.177 10.118 0.112 10.45-2.59 13.165l-2.773 2.785-194.73 0.176c-107.1 0.097-195.4-0.048-196.23-0.323zm377.67-24.706c-2.983-35.293-23.234-72.818-53.658-99.426-59.02-51.614-148.89-61.954-221.48-25.47-43.937 22.083-76.52 61.35-87.988 106.04-1.91 7.446-4.448 24.983-3.72 25.71 0.28 0.282 83.077 0.512 183.99 0.512h183.48zm-187.52-65.008c-2.405-1.827-3.136-8.182-1.637-10.778 1.5-2.597 4.954-4.862 9.197-4.862s6.382 0.756 9.04 3.413c2.656 2.657 1.906 9.08-0.756 11.675-2.663 2.596-5.94 2.828-8.057 2.828-2.116 0-5.38-0.45-7.787-2.277zm-48.038-30.52c-4.74-2.323-5.616-11.12-1.2-14.213 4.417-3.093 10.898-3.033 14.415 0.243 3.516 3.277 3.16 11.016-0.76 13.584-3.92 2.57-7.718 2.707-12.456 0.385zm98.847 0.116c-5.17-3.088-4.018-9.48-0.84-13.282 3.18-3.8 10.235-3.75 14.525-0.565 4.29 3.184 5.132 9.72 0.948 13.332-4.184 3.61-9.46 3.602-14.632 0.514z" fill="#81b3d2"/></svg><svg width="254.36241610738" viewBox="0 0 379 447" height="300" id="adv-descr-3" y="567"><path d="m26.756 446.9c-1.1-0.453-3.156-2.66-4.256-3.884-1.968-2.187-2.004-3.824-2.27-103.12l-0.266-100.9h-7.307c-6.562 0-7.555-0.263-9.732-2.58l-2.425-2.58-0.306-44.67c-0.207-30.268 0.047-45.877 0.79-48.414 2.059-7.06-1.374-6.76 77.942-6.76h71.026l-13.727-7.14c-62.24-32.38-86.42-64.762-71.068-95.173 3.65-7.23 12.89-16.822 21.67-22.497 30.723-19.857 60.57-3.33 81.982 45.39 7.066 16.08 15.19 40.73 19.23 58.35l1.246 5.433 4.243-16.932c8.943-35.692 19.397-57.68 33.803-71.102 7.263-6.765 13.132-9.927 21.197-11.418 19.433-3.592 45.867 12.894 50.56 31.533 4.333 17.207-8.55 36.82-37.09 56.467-11.512 7.926-17.094 11.217-33.5 19.75l-14 7.283 78.3 0.028c87.367 0.033 83.146-0.303 85.217 6.786 0.742 2.537 0.996 18.146 0.79 48.414l-0.307 44.67-2.424 2.58c-2.177 2.317-3.17 2.58-9.732 2.58h-7.307l-0.268 100.98-0.27 100.98c-0.003 1.307-0.93 2.58-1.854 3.505s-2.338 2.434-3.645 2.436zm125-116.65l0.254-98.25h-114.01v97.833c0 53.81 0.304 98.137 0.675 98.51 0.37 0.37 25.91 0.557 56.75 0.415l56.075-0.258zm59.24-39.75v-138.5h-41v277h41zm129.76 39.75l0.255-98.25h-112.02v197.02l55.75-0.26 55.75-0.258zm-188.99-147.5l0.264-30.75h-134.03v62.014l66.75-0.257 66.75-0.257zm209.23 0.25v-31h-132v62h132zm-192.38-73.27c-13-49.413-31.215-82.506-49.37-89.69-4.454-1.76-12.826-0.905-18.632 1.905-6.06 2.934-15.925 12.024-19.302 17.787-8.875 15.146 4.055 34.13 38.79 56.95 9.776 6.422 50.774 27.777 51.65 26.903 0.22-0.223-1.19-6.457-3.135-13.854zm50.314 1.806c37.06-18.62 63.07-40.795 63.07-53.786 0-1.57-0.646-4.102-1.435-5.63-3.403-6.58-15.586-14.617-23.88-15.754-15.966-2.188-31.704 19.568-43.164 59.666-3.8 13.3-5.178 19.964-4.128 19.964 0.356 0 4.648-2.01 9.537-4.464z" fill="#81b3d2"/></svg></svg>
